<svg width="108" height="75" viewBox="0 0 108 75" fill="none" xmlns="http://www.w3.org/2000/svg">
<path d="M53.4922 37.85C53.4922 44.15 52.8089 49.6333 51.4422 54.3C50.1089 58.9333 48.2422 62.7667 45.8422 65.8C43.4755 68.8333 40.6589 71.1 37.3922 72.6C34.1589 74.0667 30.6589 74.8 26.8922 74.8C23.1255 74.8 19.6255 74.0667 16.3922 72.6C13.1922 71.1 10.4089 68.8333 8.04219 65.8C5.67552 62.7667 3.82552 58.9333 2.49219 54.3C1.15885 49.6333 0.492188 44.15 0.492188 37.85C0.492188 31.5167 1.15885 26.0333 2.49219 21.4C3.82552 16.7667 5.67552 12.9333 8.04219 9.9C10.4089 6.86666 13.1922 4.61666 16.3922 3.15C19.6255 1.65 23.1255 0.899999 26.8922 0.899999C30.6589 0.899999 34.1589 1.65 37.3922 3.15C40.6589 4.61666 43.4755 6.86666 45.8422 9.9C48.2422 12.9333 50.1089 16.7667 51.4422 21.4C52.8089 26.0333 53.4922 31.5167 53.4922 37.85ZM40.7422 37.85C40.7422 32.6167 40.3589 28.2833 39.5922 24.85C38.8255 21.4167 37.7922 18.6833 36.4922 16.65C35.2255 14.6167 33.7589 13.2 32.0922 12.4C30.4255 11.5667 28.6922 11.15 26.8922 11.15C25.1255 11.15 23.4089 11.5667 21.7422 12.4C20.1089 13.2 18.6589 14.6167 17.3922 16.65C16.1255 18.6833 15.1089 21.4167 14.3422 24.85C13.6089 28.2833 13.2422 32.6167 13.2422 37.85C13.2422 43.0833 13.6089 47.4167 14.3422 50.85C15.1089 54.2833 16.1255 57.0167 17.3922 59.05C18.6589 61.0833 20.1089 62.5167 21.7422 63.35C23.4089 64.15 25.1255 64.55 26.8922 64.55C28.6922 64.55 30.4255 64.15 32.0922 63.35C33.7589 62.5167 35.2255 61.0833 36.4922 59.05C37.7922 57.0167 38.8255 54.2833 39.5922 50.85C40.3589 47.4167 40.7422 43.0833 40.7422 37.85ZM107.75 64.75V74H67.75V64.75H82.4V22.6C82.4 20.9333 82.45 19.2167 82.55 17.45L72.15 26.15C71.55 26.6167 70.95 26.9167 70.35 27.05C69.7833 27.15 69.2333 27.15 68.7 27.05C68.2 26.95 67.75 26.7833 67.35 26.55C66.95 26.2833 66.65 26 66.45 25.7L62.55 20.35L84.6 1.6H94.75V64.75H107.75Z" fill="#101010" fill-opacity="0.08"/>
</svg>
