<svg width="172" height="29" viewBox="0 0 172 29" fill="none" xmlns="http://www.w3.org/2000/svg">
<path d="M11.386 18.931C11.518 18.931 11.635 18.982 11.737 19.084L12.691 20.119C12.163 20.773 11.512 21.274 10.738 21.622C9.97 21.97 9.046 22.144 7.966 22.144C7 22.144 6.13 21.979 5.356 21.649C4.588 21.319 3.931 20.86 3.385 20.272C2.839 19.684 2.419 18.982 2.125 18.166C1.837 17.35 1.693 16.459 1.693 15.493C1.693 14.515 1.849 13.621 2.161 12.811C2.473 11.995 2.911 11.293 3.475 10.705C4.045 10.117 4.723 9.661 5.509 9.337C6.295 9.007 7.165 8.842 8.119 8.842C9.067 8.842 9.907 8.998 10.639 9.31C11.377 9.622 12.004 10.03 12.52 10.534L11.71 11.659C11.662 11.731 11.599 11.794 11.521 11.848C11.449 11.902 11.347 11.929 11.215 11.929C11.125 11.929 11.032 11.905 10.936 11.857C10.84 11.803 10.735 11.74 10.621 11.668C10.507 11.59 10.375 11.506 10.225 11.416C10.075 11.326 9.901 11.245 9.703 11.173C9.505 11.095 9.274 11.032 9.01 10.984C8.752 10.93 8.452 10.903 8.11 10.903C7.528 10.903 6.994 11.008 6.508 11.218C6.028 11.422 5.614 11.722 5.266 12.118C4.918 12.508 4.648 12.988 4.456 13.558C4.264 14.122 4.168 14.767 4.168 15.493C4.168 16.225 4.27 16.876 4.474 17.446C4.684 18.016 4.966 18.496 5.32 18.886C5.674 19.276 6.091 19.576 6.571 19.786C7.051 19.99 7.567 20.092 8.119 20.092C8.449 20.092 8.746 20.074 9.01 20.038C9.28 20.002 9.526 19.945 9.748 19.867C9.976 19.789 10.189 19.69 10.387 19.57C10.591 19.444 10.792 19.291 10.99 19.111C11.05 19.057 11.113 19.015 11.179 18.985C11.245 18.949 11.314 18.931 11.386 18.931ZM21.9724 20.002V22H14.3494V8.986H16.7704V20.002H21.9724ZM35.6549 15.493C35.6549 16.447 35.4959 17.332 35.1779 18.148C34.8659 18.958 34.4219 19.66 33.8459 20.254C33.2699 20.848 32.5769 21.313 31.7669 21.649C30.9569 21.979 30.0569 22.144 29.0669 22.144C28.0829 22.144 27.1859 21.979 26.3759 21.649C25.5659 21.313 24.8699 20.848 24.2879 20.254C23.7119 19.66 23.2649 18.958 22.9469 18.148C22.6289 17.332 22.4699 16.447 22.4699 15.493C22.4699 14.539 22.6289 13.657 22.9469 12.847C23.2649 12.031 23.7119 11.326 24.2879 10.732C24.8699 10.138 25.5659 9.676 26.3759 9.346C27.1859 9.01 28.0829 8.842 29.0669 8.842C29.7269 8.842 30.3479 8.92 30.9299 9.076C31.5119 9.226 32.0459 9.442 32.5319 9.724C33.0179 10 33.4529 10.339 33.8369 10.741C34.2269 11.137 34.5569 11.581 34.8269 12.073C35.0969 12.565 35.3009 13.099 35.4389 13.675C35.5829 14.251 35.6549 14.857 35.6549 15.493ZM33.1799 15.493C33.1799 14.779 33.0839 14.14 32.8919 13.576C32.6999 13.006 32.4269 12.523 32.0729 12.127C31.7189 11.731 31.2869 11.428 30.7769 11.218C30.2729 11.008 29.7029 10.903 29.0669 10.903C28.4309 10.903 27.8579 11.008 27.3479 11.218C26.8439 11.428 26.4119 11.731 26.0519 12.127C25.6979 12.523 25.4249 13.006 25.2329 13.576C25.0409 14.14 24.9449 14.779 24.9449 15.493C24.9449 16.207 25.0409 16.849 25.2329 17.419C25.4249 17.983 25.6979 18.463 26.0519 18.859C26.4119 19.249 26.8439 19.549 27.3479 19.759C27.8579 19.969 28.4309 20.074 29.0669 20.074C29.7029 20.074 30.2729 19.969 30.7769 19.759C31.2869 19.549 31.7189 19.249 32.0729 18.859C32.4269 18.463 32.6999 17.983 32.8919 17.419C33.0839 16.849 33.1799 16.207 33.1799 15.493ZM43.019 20.047C43.487 20.047 43.904 19.969 44.27 19.813C44.642 19.657 44.954 19.438 45.206 19.156C45.458 18.874 45.65 18.532 45.782 18.13C45.92 17.728 45.989 17.278 45.989 16.78V8.986H48.41V16.78C48.41 17.554 48.284 18.271 48.032 18.931C47.786 19.585 47.429 20.152 46.961 20.632C46.499 21.106 45.935 21.478 45.269 21.748C44.603 22.012 43.853 22.144 43.019 22.144C42.179 22.144 41.426 22.012 40.76 21.748C40.094 21.478 39.527 21.106 39.059 20.632C38.597 20.152 38.24 19.585 37.988 18.931C37.742 18.271 37.619 17.554 37.619 16.78V8.986H40.04V16.771C40.04 17.269 40.106 17.719 40.238 18.121C40.376 18.523 40.571 18.868 40.823 19.156C41.081 19.438 41.393 19.657 41.759 19.813C42.131 19.969 42.551 20.047 43.019 20.047ZM62.6964 15.493C62.6964 16.447 62.5374 17.323 62.2194 18.121C61.9014 18.919 61.4544 19.606 60.8784 20.182C60.3024 20.758 59.6094 21.205 58.7994 21.523C57.9894 21.841 57.0894 22 56.0994 22H51.1404V8.986H56.0994C57.0894 8.986 57.9894 9.148 58.7994 9.472C59.6094 9.79 60.3024 10.237 60.8784 10.813C61.4544 11.383 61.9014 12.067 62.2194 12.865C62.5374 13.663 62.6964 14.539 62.6964 15.493ZM60.2124 15.493C60.2124 14.779 60.1164 14.14 59.9244 13.576C59.7384 13.006 59.4654 12.526 59.1054 12.136C58.7514 11.74 58.3194 11.437 57.8094 11.227C57.3054 11.017 56.7354 10.912 56.0994 10.912H53.5704V20.074H56.0994C56.7354 20.074 57.3054 19.969 57.8094 19.759C58.3194 19.549 58.7514 19.249 59.1054 18.859C59.4654 18.463 59.7384 17.983 59.9244 17.419C60.1164 16.849 60.2124 16.207 60.2124 15.493ZM69.7028 20.11C70.1528 20.11 70.5308 20.056 70.8368 19.948C71.1428 19.84 71.3858 19.696 71.5658 19.516C71.7518 19.336 71.8838 19.126 71.9618 18.886C72.0458 18.646 72.0878 18.391 72.0878 18.121C72.0878 17.839 72.0428 17.587 71.9528 17.365C71.8628 17.137 71.7218 16.945 71.5298 16.789C71.3378 16.627 71.0888 16.504 70.7828 16.42C70.4828 16.336 70.1198 16.294 69.6938 16.294H67.2548V20.11H69.7028ZM67.2548 10.858V14.62H69.1808C70.0088 14.62 70.6328 14.47 71.0528 14.17C71.4788 13.87 71.6918 13.393 71.6918 12.739C71.6918 12.061 71.4998 11.578 71.1158 11.29C70.7318 11.002 70.1318 10.858 69.3158 10.858H67.2548ZM69.3158 8.986C70.1678 8.986 70.8968 9.067 71.5028 9.229C72.1088 9.391 72.6038 9.622 72.9878 9.922C73.3778 10.222 73.6628 10.585 73.8428 11.011C74.0228 11.437 74.1128 11.917 74.1128 12.451C74.1128 12.757 74.0678 13.051 73.9778 13.333C73.8878 13.609 73.7468 13.87 73.5548 14.116C73.3688 14.356 73.1288 14.575 72.8348 14.773C72.5468 14.971 72.2018 15.139 71.7998 15.277C73.5878 15.679 74.4818 16.645 74.4818 18.175C74.4818 18.727 74.3768 19.237 74.1668 19.705C73.9568 20.173 73.6508 20.578 73.2488 20.92C72.8468 21.256 72.3518 21.52 71.7638 21.712C71.1758 21.904 70.5038 22 69.7478 22H64.8338V8.986H69.3158ZM81.9194 20.047C82.3874 20.047 82.8044 19.969 83.1704 19.813C83.5424 19.657 83.8544 19.438 84.1064 19.156C84.3584 18.874 84.5504 18.532 84.6824 18.13C84.8204 17.728 84.8894 17.278 84.8894 16.78V8.986H87.3104V16.78C87.3104 17.554 87.1844 18.271 86.9324 18.931C86.6864 19.585 86.3294 20.152 85.8614 20.632C85.3994 21.106 84.8354 21.478 84.1694 21.748C83.5034 22.012 82.7534 22.144 81.9194 22.144C81.0794 22.144 80.3264 22.012 79.6604 21.748C78.9944 21.478 78.4274 21.106 77.9594 20.632C77.4974 20.152 77.1404 19.585 76.8884 18.931C76.6424 18.271 76.5194 17.554 76.5194 16.78V8.986H78.9404V16.771C78.9404 17.269 79.0064 17.719 79.1384 18.121C79.2764 18.523 79.4714 18.868 79.7234 19.156C79.9814 19.438 80.2934 19.657 80.6594 19.813C81.0314 19.969 81.4514 20.047 81.9194 20.047ZM101.597 15.493C101.597 16.447 101.438 17.323 101.12 18.121C100.802 18.919 100.355 19.606 99.7788 20.182C99.2028 20.758 98.5098 21.205 97.6998 21.523C96.8898 21.841 95.9898 22 94.9998 22H90.0408V8.986H94.9998C95.9898 8.986 96.8898 9.148 97.6998 9.472C98.5098 9.79 99.2028 10.237 99.7788 10.813C100.355 11.383 100.802 12.067 101.12 12.865C101.438 13.663 101.597 14.539 101.597 15.493ZM99.1128 15.493C99.1128 14.779 99.0168 14.14 98.8248 13.576C98.6388 13.006 98.3658 12.526 98.0058 12.136C97.6518 11.74 97.2198 11.437 96.7098 11.227C96.2058 11.017 95.6358 10.912 94.9998 10.912H92.4708V20.074H94.9998C95.6358 20.074 96.2058 19.969 96.7098 19.759C97.2198 19.549 97.6518 19.249 98.0058 18.859C98.3658 18.463 98.6388 17.983 98.8248 17.419C99.0168 16.849 99.1128 16.207 99.1128 15.493ZM114.462 15.475V20.74C113.802 21.226 113.097 21.583 112.347 21.811C111.603 22.033 110.805 22.144 109.953 22.144C108.891 22.144 107.928 21.979 107.064 21.649C106.206 21.319 105.471 20.86 104.859 20.272C104.253 19.684 103.785 18.982 103.455 18.166C103.125 17.35 102.96 16.459 102.96 15.493C102.96 14.515 103.119 13.618 103.437 12.802C103.755 11.986 104.205 11.284 104.787 10.696C105.375 10.108 106.086 9.652 106.92 9.328C107.754 9.004 108.69 8.842 109.728 8.842C110.256 8.842 110.748 8.884 111.204 8.968C111.666 9.052 112.092 9.169 112.482 9.319C112.878 9.463 113.238 9.64 113.562 9.85C113.886 10.06 114.183 10.291 114.453 10.543L113.76 11.641C113.652 11.815 113.511 11.923 113.337 11.965C113.163 12.001 112.974 11.956 112.77 11.83C112.572 11.716 112.374 11.602 112.176 11.488C111.978 11.374 111.756 11.275 111.51 11.191C111.27 11.107 110.997 11.038 110.691 10.984C110.391 10.93 110.043 10.903 109.647 10.903C109.005 10.903 108.423 11.011 107.901 11.227C107.385 11.443 106.944 11.752 106.578 12.154C106.212 12.556 105.93 13.039 105.732 13.603C105.534 14.167 105.435 14.797 105.435 15.493C105.435 16.237 105.54 16.903 105.75 17.491C105.966 18.073 106.266 18.568 106.65 18.976C107.04 19.378 107.508 19.687 108.054 19.903C108.6 20.113 109.209 20.218 109.881 20.218C110.361 20.218 110.79 20.167 111.168 20.065C111.546 19.963 111.915 19.825 112.275 19.651V17.293H110.637C110.481 17.293 110.358 17.251 110.268 17.167C110.184 17.077 110.142 16.969 110.142 16.843V15.475H114.462ZM119.225 10.912V14.521H123.779V16.384H119.225V20.065H125.003V22H116.795V8.986H125.003V10.912H119.225ZM136.238 10.975H132.314V22H129.893V10.975H125.969V8.986H136.238V10.975Z" fill="white"/>
<path d="M21.605 13.05C21.605 12.615 21.75 12.18 21.75 11.6C21.75 8.41002 19.14 5.80002 15.95 5.80002C13.63 5.80002 11.745 7.10502 10.73 8.99002C10.44 8.84502 9.86001 8.70002 9.42501 8.70002C7.39501 8.70002 5.80001 10.295 5.80001 12.325C5.80001 12.615 5.80001 12.905 5.94501 13.05C3.33501 13.485 1.45001 15.515 1.45001 18.125C1.45001 20.88 3.77001 23.2 6.52501 23.2H21.025C23.78 23.2 26.1 20.88 26.1 18.125C26.1 15.515 24.215 13.34 21.605 13.05Z" fill="white"/>
</svg>
